<svg xmlns="http://www.w3.org/2000/svg" width="300" height="300" viewBox="0 0 300 300">
  <rect width="300" height="300" fill="#edc53f" opacity=".9" ry="46.8"/>
  <path fill="#fff" fill-opacity=".9" d="M90 180H47v-10c8-8 30-25 28-35-3-10-16-3-18 1l-10-7c10-16 40-14 41 6 0 15-15 25-24 34h26zm56-30c0 18-5 32-23 32-19 0-24-14-24-32s5-31 24-31c18 0 23 13 23 31zm-34 0c0 7 1 21 10 21 10 0 11-14 11-21s-1-20-10-20c-11-1-11 14-11 20zm120-31c8 0 20 3 20 14 0 9-3 11-10 15 7 5 12 8 12 17 0 12-12 16-22 17-12-1-23-5-23-17 0-9 5-14 11-17-6-4-9-6-9-15 0-11 12-14 21-14zm-11 45c0 6 5 8 11 8 5 0 9-3 9-8 0-8-9-11-9-11s-11 3-11 11zm11-35c-5 0-10 1-10 6s10 9 10 9 8-4 8-10c0-4-4-5-8-5zm-30 41h-8v10h-11v-10h-30v-11l29-39h12v40h8zm-19-34-18 24h18z"/>
</svg>
